<svg xmlns="http://www.w3.org/2000/svg" xmlns:xlink="http://www.w3.org/1999/xlink" width="219.5" height="84.671" viewBox="0 0 219.5 84.671">
  <defs>
    <clipPath id="clip-path">
      <rect id="Rectangle_216" data-name="Rectangle 216" width="219.5" height="84.671" fill="#707070"/>
    </clipPath>
  </defs>
  <g id="Group_514" data-name="Group 514" clip-path="url(#clip-path)">
    <path id="Path_1583" data-name="Path 1583" d="M52.111,54.221H57.9V44.6h.085a7.029,7.029,0,0,0,6.3,3.107c5.618,0,9.447-4.468,9.447-11.534,0-6.81-3.7-11.532-9.489-11.532a7.628,7.628,0,0,0-6.426,3.319h-.127V25.238H52.111ZM63.048,42.9c-3.448,0-5.277-2.6-5.277-6.554,0-3.916,1.446-7.023,5.063-7.023,3.575,0,5.023,2.894,5.023,7.023S65.984,42.9,63.048,42.9" transform="translate(58.196 27.52)" fill="#707070"/>
    <path id="Path_1584" data-name="Path 1584" d="M73.169,47.709c5.449,0,9.193-2.64,9.193-7.023,0-5.106-4.043-6.128-7.7-6.894-3.107-.637-6-.809-6-2.68,0-1.575,1.488-2.426,3.745-2.426,2.468,0,3.958.851,4.212,3.192h5.237c-.428-4.384-3.618-7.235-9.365-7.235-4.979,0-8.895,2.254-8.895,6.979,0,4.767,3.831,5.83,7.745,6.6,2.98.6,5.747.809,5.747,2.9,0,1.53-1.448,2.51-4,2.51-2.6,0-4.384-1.107-4.767-3.618H62.953c.341,4.638,3.874,7.7,10.215,7.7" transform="translate(70.304 27.52)" fill="#707070"/>
    <path id="Path_1585" data-name="Path 1585" d="M92.811,46.756V24.924H87.023v12.6c0,2.894-1.662,4.936-4.384,4.936-2.468,0-3.618-1.4-3.618-3.958V24.924H73.275V39.479c0,4.767,2.724,7.872,7.576,7.872A7.006,7.006,0,0,0,87.108,44.2h.127v2.553Z" transform="translate(81.831 27.834)" fill="#707070"/>
    <path id="Path_1586" data-name="Path 1586" d="M84.272,47.071h5.787V34.388c0-2.894,1.575-4.765,3.916-4.765,2.129,0,3.364,1.276,3.364,3.745v13.7h5.787V34.388c0-2.894,1.49-4.765,3.916-4.765,2.127,0,3.361,1.276,3.361,3.745v13.7h5.787V32.389c0-4.767-2.6-7.747-7.191-7.747a7.619,7.619,0,0,0-6.556,3.831h-.085a6.515,6.515,0,0,0-6.043-3.831,7.128,7.128,0,0,0-6.342,3.533h-.127V25.239H84.272Z" transform="translate(94.112 27.519)" fill="#707070"/>
    <rect id="Rectangle_214" data-name="Rectangle 214" width="5.787" height="30.431" transform="translate(100.874 6.765)" fill="#707070"/>
    <path id="Path_1587" data-name="Path 1587" d="M63.092,30.043c6.767,0,11.405-5.021,11.405-11.534S69.859,6.977,63.092,6.977,51.687,12,51.687,18.509s4.638,11.534,11.405,11.534m0-4.426c-3.575,0-5.533-2.851-5.533-7.108s1.958-7.148,5.533-7.148c3.533,0,5.533,2.894,5.533,7.148s-2,7.108-5.533,7.108" transform="translate(57.722 7.792)" fill="#707070"/>
    <path id="Path_1588" data-name="Path 1588" d="M73.913,36.852c3.234,0,6.043-.766,7.874-2.468a8.469,8.469,0,0,0,2.6-6.638V7.571H78.807v2.3h-.085a7.038,7.038,0,0,0-6.043-2.894c-5.533,0-9.447,4.17-9.447,10.683,0,6.6,4.765,10.425,9.619,10.425a7.054,7.054,0,0,0,5.7-2.553h.127v2.383c0,2.978-1.575,4.553-4.852,4.553-2.682,0-3.916-1.063-4.384-2.426H63.7c.595,4.257,4.255,6.81,10.213,6.81m-.085-13.405c-2.978,0-4.936-2.17-4.936-5.874,0-3.66,1.958-5.957,4.894-5.957,3.491,0,5.192,2.722,5.192,5.914,0,3.234-1.49,5.916-5.15,5.916" transform="translate(70.615 7.791)" fill="#707070"/>
    <path id="Path_1589" data-name="Path 1589" d="M85.888,30.043c6.767,0,11.405-5.021,11.405-11.534S92.655,6.977,85.888,6.977,74.483,12,74.483,18.509s4.638,11.534,11.405,11.534m0-4.426c-3.575,0-5.533-2.851-5.533-7.108s1.958-7.148,5.533-7.148c3.533,0,5.533,2.894,5.533,7.148s-2,7.108-5.533,7.108" transform="translate(83.18 7.792)" fill="#707070"/>
    <rect id="Rectangle_215" data-name="Rectangle 215" width="25.024" height="4.979" transform="translate(185.547 23.875)" fill="#707070"/>
    <path id="Path_1590" data-name="Path 1590" d="M100.345,24.108a1.773,1.773,0,0,1,1.774-1.774h3.546a1.774,1.774,0,0,1,0,3.548h-3.546a1.773,1.773,0,0,1-1.774-1.774" transform="translate(112.062 24.942)" fill="#707070"/>
    <path id="Path_1591" data-name="Path 1591" d="M42.335,0A42.335,42.335,0,1,1,0,42.335,42.336,42.336,0,0,1,42.335,0M40.8,3.169c-4.828.679-9.428,4.56-13,11.052a44.145,44.145,0,0,0-2.784,6.208A70.907,70.907,0,0,1,40.8,18.378ZM21.445,21.445a48.744,48.744,0,0,1,3.681-8.7,31.055,31.055,0,0,1,6.236-8.13A39.358,39.358,0,0,0,4.615,31.362a31.055,31.055,0,0,1,8.13-6.236,48.988,48.988,0,0,1,8.7-3.681m-1.018,3.579a70.909,70.909,0,0,0-2.049,15.783H3.169c.679-4.83,4.56-9.43,11.052-13a43.983,43.983,0,0,1,6.206-2.784m1.012,15.783A66.659,66.659,0,0,1,23.9,23.9,66.577,66.577,0,0,1,40.8,21.439v6.611A22.518,22.518,0,0,1,28.047,40.807Zm-3.061,3.059H3.169c.679,4.83,4.56,9.43,11.052,13a43.983,43.983,0,0,0,6.206,2.784,70.909,70.909,0,0,1-2.049-15.783M23.9,60.772a66.673,66.673,0,0,1-2.46-16.907h6.609A22.518,22.518,0,0,1,40.8,56.623v6.611A66.671,66.671,0,0,1,23.9,60.772m-2.453,2.455a48.988,48.988,0,0,1-8.7-3.681,31.055,31.055,0,0,1-8.13-6.236A39.358,39.358,0,0,0,31.362,80.058a31.09,31.09,0,0,1-6.236-8.13,48.744,48.744,0,0,1-3.681-8.7M40.8,81.5c-4.828-.679-9.428-4.562-13-11.052a44.146,44.146,0,0,1-2.784-6.208A70.908,70.908,0,0,0,40.8,66.295Zm12.5-1.446a31.141,31.141,0,0,0,6.238-8.13,48.9,48.9,0,0,0,3.679-8.7,49.078,49.078,0,0,0,8.7-3.681,31.078,31.078,0,0,0,8.128-6.236A39.358,39.358,0,0,1,53.309,80.058m6.34-15.814a44.145,44.145,0,0,1-2.784,6.208c-3.571,6.49-8.169,10.372-13,11.052V66.295a70.908,70.908,0,0,0,15.783-2.051m4.6-4.6a44.013,44.013,0,0,0,6.208-2.784c6.49-3.569,10.37-8.169,11.052-13H66.293a70.786,70.786,0,0,1-2.049,15.783M63.232,43.866a66.673,66.673,0,0,1-2.46,16.907,66.671,66.671,0,0,1-16.907,2.462V56.628a22.535,22.535,0,0,1,12.76-12.762Zm3.061-3.059H81.5c-.682-4.83-4.562-9.43-11.052-13a44.013,44.013,0,0,0-6.208-2.784,70.786,70.786,0,0,1,2.049,15.783M60.772,23.9a66.659,66.659,0,0,1,2.46,16.907H56.626a22.535,22.535,0,0,1-12.76-12.762V21.439A66.577,66.577,0,0,1,60.772,23.9m2.453-2.455a49.078,49.078,0,0,1,8.7,3.681,31.079,31.079,0,0,1,8.128,6.236A39.358,39.358,0,0,0,53.309,4.615a31.106,31.106,0,0,1,6.238,8.13,48.9,48.9,0,0,1,3.679,8.7M43.866,3.169c4.83.679,9.428,4.56,13,11.052a44.144,44.144,0,0,1,2.784,6.208,70.907,70.907,0,0,0-15.783-2.051Z" fill="#707070" fill-rule="evenodd"/>
  </g>
</svg>
