<svg id="icb-2016logo-horizontal-dkinverse-RGB" xmlns="http://www.w3.org/2000/svg" width="213" height="85.858" viewBox="0 0 213 85.858">
  <g id="Group_582" data-name="Group 582" transform="translate(74.546 4.559)">
    <path id="Path_1715" data-name="Path 1715" d="M113.238,46.788c0-11.65,0-13.845-.169-16.294-.169-2.617-.929-3.883-2.617-4.306a10.083,10.083,0,0,0-2.786-.338c-.76,0-1.266-.169-1.266-.76,0-.422.591-.591,1.857-.591,2.955,0,7.767.253,9.962.253,1.942,0,6.416-.253,9.371-.253,1.013,0,1.6.169,1.6.591,0,.591-.422.76-1.266.76a11.738,11.738,0,0,0-2.279.253c-2.111.422-2.7,1.688-2.87,4.39-.169,2.448-.169,4.643-.169,16.294V60.3c0,7.429,0,13.508.338,16.8.253,2.111.76,3.461,3.039,3.8a30.144,30.144,0,0,0,3.883.338c.844,0,1.266.253,1.266.591,0,.507-.591.76-1.435.76-5.065,0-9.878-.253-11.988-.253-1.773,0-6.585.253-9.709.253q-1.52,0-1.52-.76c0-.422.338-.591,1.266-.591a11.339,11.339,0,0,0,2.786-.338c1.52-.338,2.026-1.6,2.195-3.8.422-3.208.422-9.287.422-16.716V46.788Z" transform="translate(-106.4 -23.571)" fill="#fff"/>
    <path id="Path_1716" data-name="Path 1716" d="M154.34,75.152c-7.514-6.585-9.54-15.2-9.54-22.625,0-5.234,1.6-14.268,8.949-21.021,5.488-5.065,12.832-8.1,24.229-8.1a82.52,82.52,0,0,1,11.144.76c2.955.422,5.4,1.1,7.683,1.266.844.084,1.182.422,1.182.929,0,.591-.253,1.52-.422,4.221-.169,2.533-.084,6.754-.253,8.273-.084,1.182-.253,1.773-.929,1.773-.591,0-.76-.591-.76-1.688a11.455,11.455,0,0,0-2.955-7.092c-2.533-2.7-8.527-4.728-15.618-4.728-6.669,0-11.059,1.688-14.436,4.728-5.572,5.15-7.092,12.41-7.092,19.839,0,18.235,13.93,27.353,24.145,27.353,6.838,0,10.975-.76,14.014-4.306a13.87,13.87,0,0,0,2.617-5.065c.253-1.266.422-1.52,1.013-1.52.507,0,.675.507.675,1.182A74.168,74.168,0,0,1,196.3,79.542a2.707,2.707,0,0,1-2.026,2.2c-3.039,1.266-8.864,1.773-13.845,1.773C170.127,83.509,161.263,81.23,154.34,75.152Z" transform="translate(-112.381 -23.4)" fill="#fff"/>
    <path id="Path_1717" data-name="Path 1717" d="M225.983,46.788c0-11.65,0-13.845-.169-16.294-.169-2.617-.76-3.8-3.293-4.39a14.239,14.239,0,0,0-2.955-.253c-.844,0-1.266-.169-1.266-.675s.507-.675,1.688-.675c4.052,0,8.864.253,10.469.253,3.8,0,6.754-.253,9.371-.253,13.93,0,16.378,7.429,16.378,11.482,0,6.332-3.63,10.046-7.851,13.423,6.332,2.111,13.93,7.6,13.93,16.547,0,8.189-6.332,16.716-20.515,16.716-.929,0-3.124-.169-5.4-.253-2.279-.169-4.643-.253-5.741-.253-.844,0-2.533,0-4.39.084-1.773,0-3.8.169-5.319.169q-1.52,0-1.52-.76c0-.422.338-.591,1.266-.591a11.339,11.339,0,0,0,2.786-.338c1.52-.338,1.942-2.026,2.2-4.221.422-3.208.422-9.287.422-16.378V46.788Zm9.2,1.351c0,.591.253.76.507.844a17.182,17.182,0,0,0,3.63.253c2.533,0,4.221-.338,5.488-1.435,2.026-1.6,3.124-4.39,3.124-8.1,0-5.15-2.955-11.9-9.624-11.9a11.181,11.181,0,0,0-2.533.169c-.507.169-.675.422-.675,1.266V48.139ZM245.315,54.3c-1.6-1.182-3.377-1.688-6.332-1.857-1.351-.084-2.111-.084-3.293-.084-.338,0-.422.169-.422.507V71.017c0,5.065.253,6.332,2.7,7.345a13.778,13.778,0,0,0,5.572.929c3.461,0,9.287-1.857,9.287-9.793C252.745,64.77,251.141,58.354,245.315,54.3Z" transform="translate(-123.83 -23.571)" fill="#fff"/>
  </g>
  <g id="Group_583" data-name="Group 583" transform="translate(1.351 73.448)">
    <path id="Path_1718" data-name="Path 1718" d="M21.642,115.684a5.842,5.842,0,0,1-1.942-4.559,5.974,5.974,0,0,1,1.773-4.221,6.815,6.815,0,0,1,4.9-1.6,17.982,17.982,0,0,1,2.279.169,14.152,14.152,0,0,0,1.52.253c.169,0,.253.084.253.169a4.936,4.936,0,0,0-.084.844,10.234,10.234,0,0,1-.084,1.688c0,.253-.084.338-.169.338s-.169-.084-.169-.338a2.4,2.4,0,0,0-.591-1.435,4.729,4.729,0,0,0-3.124-.929,4.036,4.036,0,0,0-2.87.929,5.268,5.268,0,0,0-1.435,3.968,5.152,5.152,0,0,0,4.9,5.488,3.673,3.673,0,0,0,2.87-.844,2.853,2.853,0,0,0,.507-1.013c.084-.253.084-.338.169-.338s.169.084.169.253a12.469,12.469,0,0,1-.338,2.026.542.542,0,0,1-.422.422,8.65,8.65,0,0,1-2.786.338A7.563,7.563,0,0,1,21.642,115.684Z" transform="translate(-19.7 -105.047)" fill="#fff"/>
    <path id="Path_1719" data-name="Path 1719" d="M34.4,111.278a6.005,6.005,0,0,1,6.416-6.078c3.883,0,6.247,2.279,6.247,5.825a6.093,6.093,0,0,1-6.416,6.332A5.964,5.964,0,0,1,34.4,111.278Zm10.468.253c0-3.461-2.026-5.656-4.559-5.656-1.773,0-3.8,1.013-3.8,4.812,0,3.208,1.773,5.741,4.728,5.741C42.42,116.6,44.868,116.006,44.868,111.532Z" transform="translate(-21.99 -105.031)" fill="#fff"/>
    <path id="Path_1720" data-name="Path 1720" d="M53.8,114.962c0,1.182.253,1.6.507,1.688a2.872,2.872,0,0,0,.844.084c.169,0,.253,0,.253.084s-.169.169-.338.169c-1.013,0-1.6-.084-1.942-.084-.169,0-.844.084-1.688.084-.169,0-.338,0-.338-.169,0-.084.084-.084.253-.084a1.859,1.859,0,0,0,.675-.084c.422-.084.507-.591.507-1.942l.169-9.2c0-.338.084-.507.169-.507.169,0,.338.169.591.507.169.169,2.533,2.7,4.812,4.981,1.013,1.013,3.124,3.293,3.377,3.546h.084l-.169-6.923c0-.929-.169-1.266-.507-1.351a2.872,2.872,0,0,0-.844-.084c-.169,0-.253-.084-.253-.169s.169-.169.422-.169c.844,0,1.52.084,1.857.084.169,0,.76-.084,1.52-.084.169,0,.338,0,.338.169,0,.084-.084.169-.253.169a.761.761,0,0,0-.422.084c-.422.084-.591.422-.591,1.351l-.253,9.709c0,.338-.084.507-.169.507-.169,0-.338-.169-.507-.338-1.013-.929-2.955-2.955-4.559-4.559-1.688-1.688-3.377-3.63-3.715-3.883h-.084Z" transform="translate(-24.591 -105)" fill="#fff"/>
    <path id="Path_1721" data-name="Path 1721" d="M69.553,116.935c-.253-.084-.253-.169-.253-.507,0-.844.084-1.773.084-2.026s.084-.422.169-.422c.169,0,.169.169.169.253a3.133,3.133,0,0,0,.169.76,2.13,2.13,0,0,0,2.195,1.6,1.934,1.934,0,0,0,2.111-1.773c0-.76-.253-1.435-1.52-2.448L72,111.785c-1.688-1.351-2.279-2.448-2.279-3.63,0-1.688,1.435-2.955,3.546-2.955a7.843,7.843,0,0,1,2.026.253c.169,0,.253.084.253.169,0,.169-.084.675-.084,1.857,0,.338-.084.422-.169.422s-.169-.084-.169-.253a1.8,1.8,0,0,0-.422-1.013,2.1,2.1,0,0,0-1.688-.76c-1.182,0-1.857.675-1.857,1.6,0,.675.338,1.266,1.6,2.2l.422.338c1.857,1.435,2.533,2.448,2.533,3.968a3.151,3.151,0,0,1-1.435,2.7,4.3,4.3,0,0,1-2.448.675A4.791,4.791,0,0,1,69.553,116.935Z" transform="translate(-27.426 -105.031)" fill="#fff"/>
    <path id="Path_1722" data-name="Path 1722" d="M82.89,106.3l-2.279.084c-.929,0-1.266.084-1.52.422a1.305,1.305,0,0,0-.253.507.182.182,0,0,1-.169.169c-.084,0-.169-.084-.169-.253a9.465,9.465,0,0,1,.338-1.773c.084-.169.084-.253.169-.253a1.747,1.747,0,0,0,.675.169,8.681,8.681,0,0,0,1.52.084h6.163c.507,0,.844-.084,1.1-.084a1.13,1.13,0,0,1,.422-.084c.084,0,.084.084.084.338,0,.338-.084,1.351-.084,1.773,0,.169-.084.253-.169.253s-.169-.084-.169-.338v-.169c0-.422-.422-.844-1.857-.844l-1.942-.084v6.332c0,1.435,0,2.617.084,3.293.084.422.169.76.591.844.253,0,.591.084.76.084a.37.37,0,0,1,.253.084c0,.084-.084.169-.253.169-1.013,0-2.026-.084-2.448-.084-.338,0-1.351.084-1.942.084-.169,0-.338-.084-.338-.169s.084-.084.253-.084a1.252,1.252,0,0,0,.591-.084c.338-.084.422-.422.422-.844.084-.675.084-1.857.084-3.293V106.3Z" transform="translate(-28.859 -105.031)" fill="#fff"/>
    <path id="Path_1723" data-name="Path 1723" d="M94.02,109.959v-3.293c0-.507-.169-.76-.675-.844-.084,0-.422-.084-.591-.084s-.253,0-.253-.169c0-.084.084-.169.338-.169.844,0,1.773.084,2.111.084.507,0,1.688-.084,2.2-.084a4.836,4.836,0,0,1,2.87.675,2.649,2.649,0,0,1,1.013,2.111c0,1.182-.507,2.2-2.026,3.461a42.213,42.213,0,0,0,3.377,4.052,2.485,2.485,0,0,0,1.773,1.013,3.656,3.656,0,0,1,.422.084.3.3,0,0,1,.169.084c0,.084-.084.169-.253.169h-1.435a4.152,4.152,0,0,1-1.688-.253,7.018,7.018,0,0,1-2.111-2.279c-.591-.844-1.351-1.942-1.52-2.111a.31.31,0,0,0-.253-.084H96.13c-.084,0-.084,0-.084.084v.253a32.871,32.871,0,0,0,.084,3.293c.084.422.169.76.591.844.253,0,.591.084.76.084a.3.3,0,0,1,.169.084c0,.084-.084.169-.338.169-.929,0-2.026-.084-2.279-.084s-1.266.084-1.857.084c-.169,0-.338-.084-.338-.169s.084-.084.253-.084a1.252,1.252,0,0,0,.591-.084c.338-.084.422-.422.422-.844.084-.675.084-1.857.084-3.293v-2.7Zm1.773,1.182c0,.169,0,.253.169.253a4.983,4.983,0,0,0,1.182.169,1.741,1.741,0,0,0,1.1-.253,2.752,2.752,0,0,0,.929-2.279c0-2.2-1.435-2.87-2.364-2.87a2.118,2.118,0,0,0-.844.084c-.084,0-.169.084-.169.253Z" transform="translate(-31.04 -105.062)" fill="#fff"/>
    <path id="Path_1724" data-name="Path 1724" d="M106.92,109.959v-3.293c0-.507-.169-.76-.675-.844-.084,0-.422-.084-.591-.084s-.253,0-.253-.169c0-.084.084-.169.338-.169.844,0,1.773.084,2.279.084.338,0,1.351-.084,1.942-.084.253,0,.338,0,.338.169,0,.084-.084.169-.253.169a.761.761,0,0,0-.422.084c-.422.084-.507.338-.591.844v5.488c0,2.279.422,3.208,1.182,3.8a2.853,2.853,0,0,0,1.942.675,3.072,3.072,0,0,0,2.111-.844c.844-.844.929-2.279.929-3.8v-5.234c0-.507-.169-.76-.675-.844-.084,0-.422-.084-.591-.084s-.253,0-.253-.169c0-.084.084-.169.338-.169.76,0,1.773.084,1.773.084.169,0,1.182-.084,1.773-.084.253,0,.338,0,.338.169,0,.084-.084.169-.253.169a.761.761,0,0,0-.422.084c-.422.084-.507.338-.591.844v4.981c0,1.688-.169,3.546-1.435,4.643a4.631,4.631,0,0,1-3.208,1.1,5.171,5.171,0,0,1-3.461-1.1c-.76-.675-1.351-1.857-1.351-4.137v-2.279Z" transform="translate(-33.049 -105.062)" fill="#fff"/>
    <path id="Path_1725" data-name="Path 1725" d="M123.542,115.684a5.842,5.842,0,0,1-1.942-4.559,5.974,5.974,0,0,1,1.773-4.221,6.815,6.815,0,0,1,4.9-1.6,17.982,17.982,0,0,1,2.279.169,14.152,14.152,0,0,0,1.52.253c.169,0,.253.084.253.169a4.936,4.936,0,0,0-.084.844,10.234,10.234,0,0,1-.084,1.688c0,.253-.084.338-.169.338s-.169-.084-.169-.338a2.4,2.4,0,0,0-.591-1.435,4.729,4.729,0,0,0-3.124-.929,4.036,4.036,0,0,0-2.87.929,5.268,5.268,0,0,0-1.435,3.968,5.152,5.152,0,0,0,4.9,5.488,3.673,3.673,0,0,0,2.87-.844,2.853,2.853,0,0,0,.507-1.013c.084-.253.084-.338.169-.338s.169.084.169.253a12.47,12.47,0,0,1-.338,2.026.542.542,0,0,1-.422.422,8.65,8.65,0,0,1-2.786.338A7.563,7.563,0,0,1,123.542,115.684Z" transform="translate(-35.573 -105.047)" fill="#fff"/>
    <path id="Path_1726" data-name="Path 1726" d="M139.79,106.3l-2.279.084c-.929,0-1.266.084-1.52.422a1.305,1.305,0,0,0-.253.507.182.182,0,0,1-.169.169c-.084,0-.169-.084-.169-.253a9.466,9.466,0,0,1,.338-1.773c.084-.169.084-.253.169-.253a1.747,1.747,0,0,0,.675.169,8.681,8.681,0,0,0,1.52.084h6.163c.507,0,.844-.084,1.1-.084a1.13,1.13,0,0,1,.422-.084c.084,0,.084.084.084.338,0,.338-.084,1.351-.084,1.773,0,.169-.084.253-.169.253s-.169-.084-.169-.338v-.169c0-.422-.422-.844-1.857-.844l-1.942-.084v6.332c0,1.435,0,2.617.084,3.293.084.422.169.76.591.844.253,0,.591.084.76.084a.37.37,0,0,1,.253.084c0,.084-.084.169-.253.169-1.013,0-2.026-.084-2.448-.084-.338,0-1.351.084-1.942.084-.169,0-.338-.084-.338-.169s.084-.084.253-.084a1.252,1.252,0,0,0,.591-.084c.338-.084.422-.422.422-.844.084-.675.084-1.857.084-3.293V106.3Z" transform="translate(-37.722 -105.031)" fill="#fff"/>
    <path id="Path_1727" data-name="Path 1727" d="M150.951,109.974v-3.293c0-.507-.169-.76-.507-.844a1.252,1.252,0,0,0-.591-.084c-.169,0-.253,0-.253-.169,0-.084.084-.084.338-.084.591,0,1.6.084,2.026.084s1.266-.084,1.857-.084c.169,0,.338,0,.338.084s-.084.169-.253.169a.761.761,0,0,0-.422.084c-.422.084-.507.338-.591.844v5.994c0,1.52,0,2.7.084,3.377.084.422.169.675.591.76.253,0,.591.084.76.084a.37.37,0,0,1,.253.084c0,.084-.084.169-.253.169-1.013,0-2.026-.084-2.448-.084-.338,0-1.351.084-1.942.084-.169,0-.338-.084-.338-.169s.084-.084.253-.084a1.252,1.252,0,0,0,.591-.084c.338-.084.422-.338.422-.76.084-.675.084-1.857.084-3.377v-2.7Z" transform="translate(-39.934 -105.078)" fill="#fff"/>
    <path id="Path_1728" data-name="Path 1728" d="M157.3,111.278a6.005,6.005,0,0,1,6.416-6.078c3.883,0,6.247,2.279,6.247,5.825a6.093,6.093,0,0,1-6.416,6.332A5.913,5.913,0,0,1,157.3,111.278Zm10.468.253c0-3.461-2.026-5.656-4.559-5.656-1.773,0-3.8,1.013-3.8,4.812,0,3.208,1.773,5.741,4.728,5.741C165.236,116.6,167.768,116.006,167.768,111.532Z" transform="translate(-41.133 -105.031)" fill="#fff"/>
    <path id="Path_1729" data-name="Path 1729" d="M176.6,114.962c0,1.182.253,1.6.507,1.688a2.872,2.872,0,0,0,.844.084c.169,0,.253,0,.253.084s-.169.169-.338.169c-1.013,0-1.6-.084-1.942-.084-.169,0-.844.084-1.688.084-.169,0-.338,0-.338-.169,0-.084.084-.084.253-.084a1.859,1.859,0,0,0,.675-.084c.422-.084.422-.591.507-1.942l.169-9.2c0-.338.084-.507.169-.507.169,0,.338.169.591.507.169.169,2.533,2.7,4.812,4.981,1.013,1.013,3.124,3.293,3.377,3.546h.084l-.169-6.923c0-.929-.169-1.266-.507-1.351a2.872,2.872,0,0,0-.844-.084c-.169,0-.253-.084-.253-.169s.169-.169.422-.169c.844,0,1.52.084,1.857.084.169,0,.76-.084,1.52-.084.169,0,.338,0,.338.169,0,.084-.084.169-.253.169a.761.761,0,0,0-.422.084c-.422.084-.591.422-.591,1.351l-.169,9.793c0,.338-.084.507-.169.507-.169,0-.338-.169-.507-.338-1.013-.929-2.955-2.955-4.559-4.559-1.688-1.688-3.377-3.63-3.715-3.883h-.084Z" transform="translate(-43.719 -105)" fill="#fff"/>
    <path id="Path_1730" data-name="Path 1730" d="M208.059,116.091c0,.422,0,.422-.169.591a9.086,9.086,0,0,1-3.715.675c-3.8,0-7.176-1.773-7.176-6.078a5.77,5.77,0,0,1,2.7-5.065,7.294,7.294,0,0,1,4.137-1.013,14.3,14.3,0,0,1,2.7.253,5.7,5.7,0,0,0,1.182.169c.169,0,.253.084.253.169,0,.169-.084.591-.084,2.533,0,.253-.084.338-.169.338a.182.182,0,0,1-.169-.169,2.224,2.224,0,0,0-.507-1.266,4.8,4.8,0,0,0-3.461-1.182,4.113,4.113,0,0,0-4.474,4.728c0,3.293,2.111,5.825,5.4,5.825a3.718,3.718,0,0,0,1.351-.169c.253-.084.253-.338.253-.591V112.46c0-.507-.169-.76-.675-.844-.084,0-.422-.084-.591-.084s-.253,0-.253-.084.084-.169.338-.169c.844,0,1.773.084,2.279.084s1.266-.084,1.773-.084c.169,0,.338,0,.338.169,0,.084-.084.084-.169.084a.918.918,0,0,0-.422.084c-.422.084-.591.338-.591.844v3.63Z" transform="translate(-47.317 -105.031)" fill="#fff"/>
    <path id="Path_1731" data-name="Path 1731" d="M214.92,109.959v-3.293c0-.507-.169-.76-.675-.844-.084,0-.422-.084-.591-.084s-.253,0-.253-.169c0-.084.084-.169.338-.169.844,0,1.773.084,2.111.084.507,0,1.688-.084,2.2-.084a4.836,4.836,0,0,1,2.87.675,2.649,2.649,0,0,1,1.013,2.111c0,1.182-.507,2.2-2.026,3.461a42.214,42.214,0,0,0,3.377,4.052,2.485,2.485,0,0,0,1.773,1.013,3.657,3.657,0,0,1,.422.084.3.3,0,0,1,.169.084c0,.084-.084.169-.253.169h-1.435a4.152,4.152,0,0,1-1.688-.253,7.018,7.018,0,0,1-2.111-2.279c-.591-.844-1.351-1.942-1.52-2.111a.31.31,0,0,0-.253-.084H217.03c-.084,0-.084,0-.084.084v.253a32.874,32.874,0,0,0,.084,3.293c.084.422.169.76.591.844.253,0,.591.084.76.084a.3.3,0,0,1,.169.084c0,.084-.084.169-.338.169-.929,0-2.026-.084-2.279-.084s-1.266.084-1.857.084c-.169,0-.338-.084-.338-.169s.084-.084.253-.084a1.252,1.252,0,0,0,.591-.084c.338-.084.422-.422.422-.844.084-.675.084-1.857.084-3.293v-2.7Zm1.857,1.182c0,.169,0,.253.169.253a4.983,4.983,0,0,0,1.182.169,1.741,1.741,0,0,0,1.1-.253,2.752,2.752,0,0,0,.929-2.279c0-2.2-1.435-2.87-2.364-2.87a2.118,2.118,0,0,0-.844.084c-.084,0-.169.084-.169.253Z" transform="translate(-49.872 -105.062)" fill="#fff"/>
    <path id="Path_1732" data-name="Path 1732" d="M226.9,111.278a6.005,6.005,0,0,1,6.416-6.078c3.883,0,6.247,2.279,6.247,5.825a6.093,6.093,0,0,1-6.416,6.332A5.964,5.964,0,0,1,226.9,111.278Zm10.469.253c0-3.461-2.026-5.656-4.559-5.656-1.773,0-3.8,1.013-3.8,4.812,0,3.208,1.773,5.741,4.728,5.741C234.92,116.6,237.368,116.006,237.368,111.532Z" transform="translate(-51.975 -105.031)" fill="#fff"/>
    <path id="Path_1733" data-name="Path 1733" d="M244.82,109.959v-3.293c0-.507-.169-.76-.675-.844-.084,0-.422-.084-.591-.084s-.253,0-.253-.169c0-.084.084-.169.338-.169.844,0,1.773.084,2.279.084.338,0,1.351-.084,1.942-.084.253,0,.338,0,.338.169,0,.084-.084.169-.253.169a.761.761,0,0,0-.422.084c-.422.084-.507.338-.591.844v5.488c0,2.279.422,3.208,1.182,3.8a2.853,2.853,0,0,0,1.942.675,3.072,3.072,0,0,0,2.111-.844c.844-.844.929-2.279.929-3.8v-5.234c0-.507-.169-.76-.675-.844-.084,0-.422-.084-.591-.084s-.253,0-.253-.169c0-.084.084-.169.338-.169.76,0,1.773.084,1.773.084.169,0,1.182-.084,1.773-.084.253,0,.338,0,.338.169,0,.084-.084.169-.253.169a.761.761,0,0,0-.422.084c-.422.084-.507.338-.591.844v4.981c0,1.688-.169,3.546-1.435,4.643a4.631,4.631,0,0,1-3.208,1.1,5.171,5.171,0,0,1-3.461-1.1c-.76-.675-1.351-1.857-1.351-4.137v-2.279Z" transform="translate(-54.529 -105.062)" fill="#fff"/>
    <path id="Path_1734" data-name="Path 1734" d="M261.22,109.959v-3.293c0-.507-.169-.76-.675-.844-.084,0-.422-.084-.591-.084s-.253,0-.253-.169c0-.084.084-.169.338-.169.844,0,1.773.084,2.2.084.675,0,1.52-.084,2.279-.084a4.11,4.11,0,0,1,2.87.844,2.716,2.716,0,0,1,.76,1.857,3.614,3.614,0,0,1-3.8,3.715h-.338c-.084,0-.169,0-.169-.169,0-.084.084-.169.422-.169a2.5,2.5,0,0,0,2.111-2.533,3,3,0,0,0-.929-2.279,2.32,2.32,0,0,0-1.52-.591,1.252,1.252,0,0,0-.591.084c-.084,0-.084.084-.084.253v6.163c0,1.435,0,2.617.084,3.293.084.422.169.76.591.844.253,0,.591.084.76.084a.37.37,0,0,1,.253.084c0,.084-.084.169-.253.169-1.013,0-2.026-.084-2.364-.084s-1.351.084-1.942.084c-.169,0-.338-.084-.338-.169s.084-.084.253-.084a1.252,1.252,0,0,0,.591-.084c.338-.084.422-.422.422-.844.084-.675.084-1.857.084-3.293v-2.617Z" transform="translate(-57.084 -105.062)" fill="#fff"/>
  </g>
  <g id="Group_586" data-name="Group 586">
    <rect id="Rectangle_268" data-name="Rectangle 268" width="3.293" height="25.411" transform="translate(48.628 28.788)" fill="#fff"/>
    <rect id="Rectangle_269" data-name="Rectangle 269" width="3.293" height="25.411" transform="translate(17.054 28.788)" fill="#fff"/>
    <rect id="Rectangle_270" data-name="Rectangle 270" width="3.293" height="25.411" transform="translate(24.989 17.982)" fill="#fff"/>
    <rect id="Rectangle_271" data-name="Rectangle 271" width="3.293" height="25.411" transform="translate(40.692 17.982)" fill="#fff"/>
    <g id="Group_585" data-name="Group 585">
      <rect id="Rectangle_272" data-name="Rectangle 272" width="3.293" height="25.411" transform="translate(32.841 5.741)" fill="#fff"/>
      <g id="Group_584" data-name="Group 584">
        <path id="Path_1735" data-name="Path 1735" d="M87.327,52.614A34.614,34.614,0,1,0,35.238,82.5V78.785a31.448,31.448,0,1,1,34.7,0v3.8A34.286,34.286,0,0,0,87.327,52.614Z" transform="translate(-18.1 -18)" fill="#888b8d"/>
        <path id="Path_1736" data-name="Path 1736" d="M75.7,82.2V94.357c1.1-.507,2.279-1.1,3.293-1.688V82.2H75.7Z" transform="translate(-27.072 -28)" fill="#e87722"/>
        <path id="Path_1737" data-name="Path 1737" d="M38.3,82.2V92.584c1.1.591,2.2,1.182,3.293,1.688V82.2Z" transform="translate(-21.246 -28)" fill="#e87722"/>
        <path id="Path_1738" data-name="Path 1738" d="M47.7,69.5V93.983a23.164,23.164,0,0,0,3.293.76V69.5Z" transform="translate(-22.711 -26.022)" fill="#e87722"/>
        <path id="Path_1739" data-name="Path 1739" d="M66.3,69.5V94.827a23.161,23.161,0,0,0,3.293-.76V69.5Z" transform="translate(-25.608 -26.022)" fill="#e87722"/>
        <path id="Path_1740" data-name="Path 1740" d="M57,54.9V92.975c.591,0,1.182.084,1.773.084h1.6V54.9Z" transform="translate(-24.159 -23.748)" fill="#e87722"/>
      </g>
    </g>
  </g>
</svg>
