<svg id="Group_625" data-name="Group 625" xmlns="http://www.w3.org/2000/svg" xmlns:xlink="http://www.w3.org/1999/xlink" width="213.002" height="85.764" viewBox="0 0 213.002 85.764">
  <defs>
    <clipPath id="clip-path">
      <rect id="Rectangle_570" data-name="Rectangle 570" width="213.002" height="85.764" fill="none"/>
    </clipPath>
  </defs>
  <g id="Group_626" data-name="Group 626" clip-path="url(#clip-path)">
    <path id="Path_11655" data-name="Path 11655" d="M95.23,28.839c0-11.665,0-13.815-.154-16.27-.154-2.609-.921-3.914-2.61-4.3A10.927,10.927,0,0,0,89.7,7.963c-.767,0-1.228-.154-1.228-.767,0-.461.614-.615,1.842-.615,2.916,0,7.751.23,9.977.23,1.919,0,6.448-.23,9.364-.23,1,0,1.612.154,1.612.615,0,.613-.46.767-1.228.767a12.965,12.965,0,0,0-2.3.231c-2.073.383-2.686,1.688-2.84,4.374-.154,2.456-.154,4.605-.154,16.27V42.347c0,7.445,0,13.507.307,16.807.23,2.073.767,3.454,3.07,3.761a32.314,32.314,0,0,0,3.914.306c.844,0,1.228.231,1.228.615,0,.537-.614.767-1.458.767-5.066,0-9.9-.23-11.973-.23-1.765,0-6.6.23-9.67.23-1,0-1.535-.23-1.535-.767,0-.383.307-.615,1.228-.615a12.519,12.519,0,0,0,2.763-.306c1.535-.307,1.995-1.612,2.225-3.837.384-3.224.384-9.287.384-16.731Z" transform="translate(-13.78 -1.025)" fill="#00205b"/>
    <path id="Path_11656" data-name="Path 11656" d="M136.266,57.115c-7.521-6.6-9.516-15.2-9.516-22.641,0-5.218,1.612-14.276,8.98-21.029,5.526-5.066,12.817-8.136,24.252-8.136a75.8,75.8,0,0,1,11.129.768c2.917.383,5.373,1.074,7.675,1.3.843.076,1.151.461,1.151.921,0,.614-.23,1.535-.383,4.22-.154,2.534-.077,6.755-.23,8.29-.077,1.151-.23,1.765-.92,1.765-.615,0-.768-.615-.768-1.689a10.959,10.959,0,0,0-2.993-7.061c-2.533-2.686-8.519-4.758-15.581-4.758-6.676,0-11.051,1.689-14.428,4.758-5.6,5.142-7.061,12.433-7.061,19.878,0,18.266,13.891,27.323,24.176,27.323,6.831,0,10.974-.768,14.045-4.3a12.816,12.816,0,0,0,2.61-5.066c.23-1.228.383-1.535,1-1.535.537,0,.691.538.691,1.151A73,73,0,0,1,178.4,61.489a2.712,2.712,0,0,1-2,2.225c-3.069,1.228-8.9,1.765-13.815,1.765-10.514,0-19.34-2.3-26.325-8.365" transform="translate(-19.741 -0.827)" fill="#00205b"/>
    <path id="Path_11657" data-name="Path 11657" d="M207.959,28.838c0-11.665,0-13.815-.154-16.27-.154-2.609-.767-3.836-3.3-4.374a15.773,15.773,0,0,0-2.994-.23c-.844,0-1.3-.154-1.3-.691s.538-.691,1.689-.691c4.068,0,8.9.231,10.438.231,3.76,0,6.754-.231,9.364-.231,13.891,0,16.347,7.445,16.347,11.513,0,6.293-3.607,10.053-7.828,13.431,6.293,2.149,13.967,7.6,13.967,16.577,0,8.213-6.37,16.732-20.492,16.732-.921,0-3.147-.154-5.372-.231-2.3-.154-4.6-.23-5.756-.23-.844,0-2.533,0-4.375.076-1.765,0-3.76.154-5.3.154-1,0-1.536-.23-1.536-.767,0-.383.307-.614,1.228-.614a12.52,12.52,0,0,0,2.763-.306c1.535-.307,1.918-2,2.225-4.222.384-3.223.384-9.287.384-16.347Zm9.209,1.305c0,.614.231.767.537.844a18.736,18.736,0,0,0,3.607.23c2.533,0,4.221-.307,5.526-1.459,2-1.612,3.147-4.374,3.147-8.135,0-5.142-2.993-11.9-9.592-11.9a12.428,12.428,0,0,0-2.534.154c-.537.154-.691.46-.691,1.305Zm10.131,6.14c-1.612-1.152-3.377-1.689-6.37-1.842-1.381-.077-2.149-.077-3.3-.077-.307,0-.461.154-.461.538V53.091c0,5.066.231,6.371,2.686,7.368a13.819,13.819,0,0,0,5.6.921c3.454,0,9.287-1.842,9.287-9.824,0-4.758-1.612-11.2-7.445-15.273" transform="translate(-31.181 -1.025)" fill="#00205b"/>
    <path id="Path_11658" data-name="Path 11658" d="M3.655,97.662a6.129,6.129,0,0,1-.108-8.806,6.749,6.749,0,0,1,4.89-1.641,15.293,15.293,0,0,1,2.244.155c.588.078,1.083.217,1.548.263.171.016.232.094.232.186,0,.124-.046.31-.078.852-.031.511-.015,1.362-.046,1.672-.015.231-.046.355-.186.355-.123,0-.154-.124-.154-.34a2.216,2.216,0,0,0-.6-1.424,4.619,4.619,0,0,0-3.141-.959,4.037,4.037,0,0,0-2.909.959,5.784,5.784,0,0,0,3.45,9.518c1.378,0,2.214-.155,2.832-.866a2.578,2.578,0,0,0,.526-1.022c.046-.248.078-.31.2-.31s.139.108.139.232a14.607,14.607,0,0,1-.34,2.058.546.546,0,0,1-.4.448,8.979,8.979,0,0,1-2.786.355,7.735,7.735,0,0,1-5.308-1.686" transform="translate(-0.27 -13.583)" fill="#888b8d"/>
    <path id="Path_11659" data-name="Path 11659" d="M16.4,93.282a5.96,5.96,0,0,1,6.391-6.067c3.854,0,6.253,2.244,6.253,5.788a6.118,6.118,0,0,1-6.407,6.345A5.9,5.9,0,0,1,16.4,93.282m10.477.294c0-3.467-2-5.618-4.534-5.618-1.78,0-3.807.99-3.807,4.843,0,3.219,1.779,5.773,4.751,5.773,1.083,0,3.591-.526,3.591-5" transform="translate(-2.554 -13.583)" fill="#888b8d"/>
    <path id="Path_11660" data-name="Path 11660" d="M35.73,97.018c.031,1.207.232,1.609.542,1.717a2.456,2.456,0,0,0,.8.108c.171,0,.263.031.263.125,0,.123-.139.154-.356.154-1.006,0-1.624-.046-1.919-.046-.139,0-.866.046-1.672.046-.2,0-.34-.014-.34-.154,0-.094.093-.125.247-.125a2.76,2.76,0,0,0,.7-.077c.4-.123.464-.572.48-1.919l.139-9.161c0-.31.046-.527.2-.527s.309.2.572.48c.186.2,2.538,2.724,4.8,4.967,1.053,1.053,3.141,3.282,3.4,3.529h.078l-.154-6.949c-.016-.943-.155-1.238-.527-1.392a2.5,2.5,0,0,0-.821-.094c-.185,0-.247-.046-.247-.138,0-.124.171-.139.4-.139.8,0,1.548.046,1.873.046.171,0,.758-.046,1.516-.046.2,0,.356.015.356.139,0,.093-.093.138-.279.138a1.658,1.658,0,0,0-.464.047c-.433.123-.556.448-.572,1.315l-.171,9.765c0,.341-.062.48-.2.48-.171,0-.355-.171-.526-.34-.975-.929-2.956-2.957-4.566-4.551-1.687-1.671-3.4-3.606-3.683-3.9H35.56Z" transform="translate(-5.148 -13.575)" fill="#888b8d"/>
    <path id="Path_11661" data-name="Path 11661" d="M51.49,98.946c-.247-.108-.294-.186-.294-.526,0-.851.062-1.78.077-2.027s.062-.4.187-.4.155.138.155.263a3.247,3.247,0,0,0,.139.789A2.132,2.132,0,0,0,53.966,98.6a1.88,1.88,0,0,0,2.074-1.763c0-.759-.233-1.471-1.517-2.476l-.712-.557c-1.7-1.331-2.29-2.415-2.29-3.668,0-1.7,1.423-2.925,3.575-2.925a7.492,7.492,0,0,1,2.058.263c.139.031.217.078.217.186,0,.2-.062.65-.062,1.857,0,.34-.046.464-.17.464-.108,0-.154-.093-.154-.279a1.874,1.874,0,0,0-.4-1.022,1.961,1.961,0,0,0-1.687-.758,1.628,1.628,0,0,0-1.841,1.594c0,.712.355,1.254,1.64,2.229l.433.325c1.873,1.408,2.538,2.475,2.538,3.945a3.118,3.118,0,0,1-1.455,2.693,4.475,4.475,0,0,1-2.461.634,5.365,5.365,0,0,1-2.259-.4" transform="translate(-7.974 -13.583)" fill="#888b8d"/>
    <path id="Path_11662" data-name="Path 11662" d="M64.848,88.3l-2.306.062c-.9.03-1.269.108-1.5.447a1.838,1.838,0,0,0-.263.543c-.031.123-.078.185-.171.185-.108,0-.139-.077-.139-.247,0-.247.295-1.656.326-1.78.046-.2.092-.295.185-.295a3.588,3.588,0,0,0,.666.187c.448.046,1.036.078,1.547.078h6.129a7.359,7.359,0,0,0,1.067-.078,3.756,3.756,0,0,1,.418-.078c.109,0,.124.093.124.325,0,.325-.046,1.393-.046,1.795-.016.155-.046.247-.139.247-.124,0-.155-.077-.171-.308l-.015-.171c-.031-.4-.449-.837-1.826-.867l-1.95-.046v6.345c0,1.424,0,2.647.078,3.312.046.433.139.774.6.836a6.458,6.458,0,0,0,.789.062c.171,0,.248.047.248.124,0,.108-.124.154-.294.154-1.022,0-2-.046-2.43-.046-.356,0-1.331.046-1.95.046-.2,0-.309-.046-.309-.154,0-.077.062-.124.247-.124a2.512,2.512,0,0,0,.557-.062c.309-.062.4-.4.449-.851.077-.65.077-1.873.077-3.3Z" transform="translate(-9.418 -13.583)" fill="#888b8d"/>
    <path id="Path_11663" data-name="Path 11663" d="M75.941,91.959c0-2.351,0-2.784-.031-3.28-.03-.526-.155-.774-.665-.882a3.16,3.16,0,0,0-.6-.046c-.171,0-.263-.03-.263-.138s.109-.14.341-.14c.82,0,1.795.046,2.12.046.526,0,1.7-.046,2.182-.046a4.951,4.951,0,0,1,2.848.665,2.683,2.683,0,0,1,1.052,2.12c0,1.146-.48,2.2-2.043,3.467,1.378,1.733,2.446,3.111,3.358,4.07a3.078,3.078,0,0,0,1.733,1.053,2.417,2.417,0,0,0,.433.046c.124,0,.186.046.186.124,0,.123-.108.155-.294.155h-1.47a3.157,3.157,0,0,1-1.656-.294,7.472,7.472,0,0,1-2.12-2.275c-.619-.851-1.331-1.9-1.532-2.136a.325.325,0,0,0-.279-.108l-1.346-.031c-.078,0-.124.031-.124.124v.217c0,1.439,0,2.661.077,3.312.047.448.14.789.6.851a7.05,7.05,0,0,0,.759.062c.123,0,.186.046.186.124,0,.108-.108.155-.31.155-.9,0-2.042-.046-2.274-.046-.295,0-1.27.046-1.889.046-.2,0-.31-.046-.31-.155,0-.078.062-.124.248-.124a2.511,2.511,0,0,0,.557-.062c.309-.062.387-.4.448-.851.078-.651.078-1.873.078-3.3Zm1.826,1.223c0,.171.031.232.139.279a4.09,4.09,0,0,0,1.176.155,1.549,1.549,0,0,0,1.1-.263,2.729,2.729,0,0,0,.913-2.322c0-2.2-1.455-2.832-2.368-2.832a3.384,3.384,0,0,0-.82.062c-.108.031-.139.092-.139.217Z" transform="translate(-11.584 -13.623)" fill="#888b8d"/>
    <path id="Path_11664" data-name="Path 11664" d="M88.9,91.959c0-2.352,0-2.785-.031-3.28-.031-.527-.155-.774-.665-.882a3.144,3.144,0,0,0-.6-.047c-.17,0-.263-.03-.263-.138s.108-.139.34-.139c.82,0,1.795.046,2.259.046.371,0,1.347-.046,1.9-.046.232,0,.34.03.34.139s-.093.138-.247.138a2.31,2.31,0,0,0-.449.047c-.418.077-.542.339-.572.882-.031.495-.031.928-.031,3.28v2.167c0,2.243.449,3.188,1.207,3.807a2.861,2.861,0,0,0,1.935.634,3.03,3.03,0,0,0,2.135-.835c.851-.851.9-2.244.9-3.838V91.959c0-2.352,0-2.785-.031-3.28-.03-.527-.154-.774-.665-.882a2.964,2.964,0,0,0-.557-.047c-.171,0-.263-.03-.263-.138s.108-.139.325-.139c.789,0,1.764.046,1.78.046.186,0,1.161-.046,1.764-.046.217,0,.325.03.325.139s-.093.138-.278.138A2.31,2.31,0,0,0,99,87.8c-.418.077-.542.339-.572.882-.031.495-.031.928-.031,3.28v1.656c0,1.718-.171,3.543-1.471,4.658a4.614,4.614,0,0,1-3.218,1.114,4.979,4.979,0,0,1-3.436-1.068c-.789-.712-1.377-1.857-1.377-4.1Z" transform="translate(-13.602 -13.623)" fill="#888b8d"/>
    <path id="Path_11665" data-name="Path 11665" d="M105.508,97.662a6.129,6.129,0,0,1-.108-8.806,6.749,6.749,0,0,1,4.89-1.641,15.293,15.293,0,0,1,2.244.155c.588.078,1.083.217,1.548.263.171.016.232.094.232.186,0,.124-.046.31-.078.852-.031.511-.015,1.362-.046,1.672-.015.231-.046.355-.186.355-.123,0-.155-.124-.155-.34a2.216,2.216,0,0,0-.6-1.424,4.619,4.619,0,0,0-3.141-.959,4.037,4.037,0,0,0-2.909.959,5.784,5.784,0,0,0,3.45,9.518c1.378,0,2.214-.155,2.832-.866A2.578,2.578,0,0,0,114,96.563c.046-.248.078-.31.2-.31s.139.108.139.232a14.608,14.608,0,0,1-.34,2.058.546.546,0,0,1-.4.448,8.979,8.979,0,0,1-2.786.355,7.735,7.735,0,0,1-5.308-1.686" transform="translate(-16.133 -13.583)" fill="#888b8d"/>
    <path id="Path_11666" data-name="Path 11666" d="M121.785,88.3l-2.306.062c-.9.03-1.269.108-1.5.447a1.838,1.838,0,0,0-.263.543c-.031.123-.078.185-.171.185-.108,0-.139-.077-.139-.247,0-.247.295-1.656.326-1.78.046-.2.092-.295.185-.295a3.588,3.588,0,0,0,.666.187c.448.046,1.036.078,1.547.078h6.129a7.359,7.359,0,0,0,1.067-.078,3.757,3.757,0,0,1,.418-.078c.109,0,.124.093.124.325,0,.325-.046,1.393-.046,1.795-.016.155-.046.247-.139.247-.124,0-.155-.077-.171-.308l-.015-.171c-.031-.4-.449-.837-1.826-.867l-1.95-.046v6.345c0,1.424,0,2.647.078,3.312.046.433.139.774.6.836a6.458,6.458,0,0,0,.789.062c.171,0,.248.047.248.124,0,.108-.124.154-.294.154-1.022,0-2-.046-2.43-.046-.356,0-1.331.046-1.95.046-.2,0-.309-.046-.309-.154,0-.077.062-.124.247-.124a2.512,2.512,0,0,0,.557-.062c.309-.062.4-.4.449-.851.077-.65.077-1.873.077-3.3Z" transform="translate(-18.285 -13.583)" fill="#888b8d"/>
    <path id="Path_11667" data-name="Path 11667" d="M132.916,91.959c0-2.352,0-2.785-.03-3.28-.031-.527-.187-.79-.527-.867a2.193,2.193,0,0,0-.556-.062c-.155,0-.248-.03-.248-.155,0-.093.124-.123.371-.123.588,0,1.563.046,2.012.046.387,0,1.3-.046,1.888-.046.2,0,.326.03.326.123,0,.124-.094.155-.248.155a2.575,2.575,0,0,0-.464.047c-.419.077-.543.339-.573.882-.031.495-.031.928-.031,3.28v2.724c0,1.5,0,2.724.062,3.39.047.418.155.7.62.758a6.47,6.47,0,0,0,.789.062c.17,0,.247.047.247.124,0,.108-.123.154-.294.154-1.022,0-2-.046-2.415-.046-.356,0-1.331.046-1.949.046-.2,0-.31-.046-.31-.154,0-.077.062-.124.247-.124a2.512,2.512,0,0,0,.557-.062c.309-.062.4-.324.449-.773.077-.651.077-1.873.077-3.374Z" transform="translate(-20.489 -13.623)" fill="#888b8d"/>
    <path id="Path_11668" data-name="Path 11668" d="M139.269,93.282a5.96,5.96,0,0,1,6.392-6.067c3.854,0,6.253,2.244,6.253,5.788a6.118,6.118,0,0,1-6.408,6.345,5.9,5.9,0,0,1-6.237-6.066m10.477.294c0-3.467-2-5.618-4.535-5.618-1.779,0-3.807.99-3.807,4.843,0,3.219,1.78,5.773,4.751,5.773,1.082,0,3.59-.526,3.59-5" transform="translate(-21.69 -13.583)" fill="#888b8d"/>
    <path id="Path_11669" data-name="Path 11669" d="M158.6,97.018c.031,1.207.232,1.609.542,1.717a2.453,2.453,0,0,0,.8.108c.171,0,.263.031.263.125,0,.123-.139.154-.356.154-1.006,0-1.624-.046-1.919-.046-.138,0-.866.046-1.672.046-.2,0-.339-.014-.339-.154,0-.094.092-.125.247-.125a2.758,2.758,0,0,0,.7-.077c.4-.123.464-.572.48-1.919l.139-9.161c0-.31.046-.527.2-.527.171,0,.31.2.573.48.186.2,2.538,2.724,4.8,4.967,1.053,1.053,3.141,3.282,3.4,3.529h.078l-.155-6.949c-.015-.943-.154-1.238-.526-1.392a2.5,2.5,0,0,0-.821-.094c-.185,0-.247-.046-.247-.138,0-.124.171-.139.4-.139.8,0,1.548.046,1.873.046.17,0,.758-.046,1.516-.046.2,0,.356.015.356.139,0,.093-.093.138-.279.138a1.65,1.65,0,0,0-.464.047c-.434.123-.557.448-.573,1.315l-.171,9.765c0,.341-.062.48-.2.48-.171,0-.355-.171-.526-.34-.975-.929-2.957-2.957-4.566-4.551-1.687-1.671-3.4-3.606-3.683-3.9h-.047Z" transform="translate(-24.285 -13.575)" fill="#888b8d"/>
    <path id="Path_11670" data-name="Path 11670" d="M190.005,98.095c0,.418-.015.449-.2.557a8.751,8.751,0,0,1-3.73.7c-3.792,0-7.149-1.794-7.149-6.066a5.786,5.786,0,0,1,2.692-5.06,7.494,7.494,0,0,1,4.163-1.006,18.62,18.62,0,0,1,2.739.248,10.144,10.144,0,0,0,1.223.17c.186.016.216.078.216.186a20.96,20.96,0,0,0-.108,2.539c0,.247-.046.324-.171.324-.108,0-.139-.077-.155-.2A2.176,2.176,0,0,0,189,89.2a4.947,4.947,0,0,0-3.451-1.207,4.459,4.459,0,0,0-3.064.959,4.607,4.607,0,0,0-1.424,3.792c0,3.327,2.12,5.819,5.386,5.819a3.423,3.423,0,0,0,1.315-.171.549.549,0,0,0,.293-.572V96.362c0-.774,0-1.362-.014-1.826-.016-.526-.155-.774-.666-.882a3.23,3.23,0,0,0-.6-.046c-.139,0-.232-.031-.232-.123,0-.124.108-.155.326-.155.8,0,1.779.047,2.243.047.48,0,1.3-.047,1.811-.047.2,0,.31.031.31.155,0,.092-.094.123-.2.123a2.507,2.507,0,0,0-.418.046c-.417.078-.572.34-.588.882-.016.464-.016,1.083-.016,1.857Z" transform="translate(-27.867 -13.583)" fill="#888b8d"/>
    <path id="Path_11671" data-name="Path 11671" d="M196.871,91.959c0-2.351,0-2.784-.031-3.28-.031-.526-.155-.774-.666-.882a3.15,3.15,0,0,0-.6-.046c-.171,0-.263-.03-.263-.138s.109-.14.34-.14c.82,0,1.8.046,2.12.046.527,0,1.7-.046,2.182-.046a4.949,4.949,0,0,1,2.848.665,2.68,2.68,0,0,1,1.052,2.12c0,1.146-.479,2.2-2.043,3.467,1.378,1.733,2.446,3.111,3.358,4.07a3.083,3.083,0,0,0,1.733,1.053,2.418,2.418,0,0,0,.434.046c.123,0,.186.046.186.124,0,.123-.108.155-.295.155h-1.47a3.151,3.151,0,0,1-1.656-.294,7.472,7.472,0,0,1-2.121-2.275c-.618-.851-1.331-1.9-1.531-2.136a.326.326,0,0,0-.279-.108l-1.347-.031c-.077,0-.124.031-.124.124v.217c0,1.439,0,2.661.078,3.312.046.448.14.789.6.851a7.035,7.035,0,0,0,.758.062c.124,0,.186.046.186.124,0,.108-.108.155-.309.155-.9,0-2.043-.046-2.275-.046-.294,0-1.27.046-1.888.046-.2,0-.31-.046-.31-.155,0-.078.062-.124.247-.124a2.5,2.5,0,0,0,.557-.062c.31-.062.388-.4.449-.851.078-.651.078-1.873.078-3.3Zm1.825,1.223c0,.171.031.232.139.279a4.1,4.1,0,0,0,1.177.155,1.548,1.548,0,0,0,1.1-.263,2.729,2.729,0,0,0,.913-2.322c0-2.2-1.455-2.832-2.368-2.832a3.393,3.393,0,0,0-.82.062c-.108.031-.139.092-.139.217Z" transform="translate(-30.418 -13.623)" fill="#888b8d"/>
    <path id="Path_11672" data-name="Path 11672" d="M208.9,93.282a5.96,5.96,0,0,1,6.392-6.067c3.854,0,6.252,2.244,6.252,5.788a6.118,6.118,0,0,1-6.407,6.345,5.9,5.9,0,0,1-6.237-6.066m10.477.294c0-3.467-2-5.618-4.535-5.618-1.779,0-3.807.99-3.807,4.843,0,3.219,1.78,5.773,4.751,5.773,1.082,0,3.59-.526,3.59-5" transform="translate(-32.536 -13.583)" fill="#888b8d"/>
    <path id="Path_11673" data-name="Path 11673" d="M226.815,91.959c0-2.352,0-2.785-.031-3.28-.031-.527-.154-.774-.665-.882a3.15,3.15,0,0,0-.6-.047c-.171,0-.263-.03-.263-.138s.108-.139.339-.139c.821,0,1.8.046,2.26.046.371,0,1.347-.046,1.9-.046.232,0,.34.03.34.139s-.093.138-.247.138a2.31,2.31,0,0,0-.449.047c-.418.077-.541.339-.572.882-.031.495-.031.928-.031,3.28v2.167c0,2.243.449,3.188,1.207,3.807a2.861,2.861,0,0,0,1.935.634,3.03,3.03,0,0,0,2.135-.835c.851-.851.9-2.244.9-3.838V91.959c0-2.352,0-2.785-.031-3.28-.031-.527-.155-.774-.666-.882a2.97,2.97,0,0,0-.557-.047c-.171,0-.263-.03-.263-.138s.108-.139.325-.139c.789,0,1.764.046,1.78.046.185,0,1.161-.046,1.764-.046.217,0,.325.03.325.139s-.092.138-.279.138a2.3,2.3,0,0,0-.448.047c-.418.077-.542.339-.573.882-.03.495-.03.928-.03,3.28v1.656c0,1.718-.171,3.543-1.471,4.658a4.614,4.614,0,0,1-3.218,1.114,4.979,4.979,0,0,1-3.436-1.068c-.789-.712-1.377-1.857-1.377-4.1Z" transform="translate(-35.082 -13.623)" fill="#888b8d"/>
    <path id="Path_11674" data-name="Path 11674" d="M243.217,91.959c0-2.352,0-2.785-.032-3.28-.031-.527-.155-.774-.665-.882a3.144,3.144,0,0,0-.6-.047c-.171,0-.263-.03-.263-.138s.108-.139.339-.139c.821,0,1.8.046,2.229.046.635,0,1.532-.046,2.245-.046a3.778,3.778,0,0,1,2.878.881,2.692,2.692,0,0,1,.773,1.842,3.641,3.641,0,0,1-3.807,3.744,2.32,2.32,0,0,1-.325-.015c-.078-.014-.186-.03-.186-.139s.108-.17.433-.17a2.437,2.437,0,0,0,2.074-2.554,2.982,2.982,0,0,0-.913-2.322,2.3,2.3,0,0,0-1.548-.6,2.187,2.187,0,0,0-.6.062c-.077.031-.123.124-.123.294v6.19c0,1.424,0,2.647.077,3.312.046.433.139.774.6.836a6.47,6.47,0,0,0,.789.062c.171,0,.247.047.247.124,0,.108-.123.154-.294.154-1.022,0-2-.046-2.4-.046-.356,0-1.331.046-1.95.046-.2,0-.31-.046-.31-.154,0-.077.062-.124.248-.124a2.526,2.526,0,0,0,.558-.062c.308-.062.386-.4.448-.851.078-.65.078-1.873.078-3.3Z" transform="translate(-37.636 -13.623)" fill="#888b8d"/>
    <rect id="Rectangle_565" data-name="Rectangle 565" width="3.315" height="25.443" transform="translate(48.673 28.754)" fill="#00205b"/>
    <rect id="Rectangle_566" data-name="Rectangle 566" width="3.315" height="25.443" transform="translate(17.141 28.754)" fill="#00205b"/>
    <rect id="Rectangle_567" data-name="Rectangle 567" width="3.315" height="25.443" transform="translate(25.024 18.015)" fill="#00205b"/>
    <rect id="Rectangle_568" data-name="Rectangle 568" width="3.315" height="25.443" transform="translate(40.79 18.015)" fill="#00205b"/>
    <rect id="Rectangle_569" data-name="Rectangle 569" width="3.315" height="25.443" transform="translate(32.907 5.728)" fill="#00205b"/>
    <path id="Path_11675" data-name="Path 11675" d="M69.293,34.646a34.647,34.647,0,1,0-52.151,29.9v-3.8a31.44,31.44,0,1,1,34.846.1v3.785A34.623,34.623,0,0,0,69.293,34.646" transform="translate(0 0)" fill="#888b8d"/>
    <path id="Path_11676" data-name="Path 11676" d="M57.652,64.195V76.324a34.737,34.737,0,0,0,3.315-1.691V64.195Z" transform="translate(-8.979 -9.998)" fill="#e87722"/>
    <path id="Path_11677" data-name="Path 11677" d="M20.3,64.195V74.539a34.51,34.51,0,0,0,3.315,1.71V64.195Z" transform="translate(-3.162 -9.998)" fill="#e87722"/>
    <path id="Path_11678" data-name="Path 11678" d="M29.64,51.474v24.47q1.626.47,3.315.782V51.474Z" transform="translate(-4.616 -8.017)" fill="#e87722"/>
    <path id="Path_11679" data-name="Path 11679" d="M48.314,51.474v25.28q1.688-.3,3.315-.764V51.474Z" transform="translate(-7.525 -8.017)" fill="#e87722"/>
    <path id="Path_11680" data-name="Path 11680" d="M38.977,36.922V75q.865.043,1.739.044c.529,0,1.054-.016,1.576-.04V36.922Z" transform="translate(-6.07 -5.75)" fill="#e87722"/>
  </g>
</svg>
