<svg xmlns="http://www.w3.org/2000/svg" xmlns:xlink="http://www.w3.org/1999/xlink" width="97.249" height="93.048" viewBox="0 0 97.249 93.048">
  <defs>
    <clipPath id="clip-path">
      <rect id="Rectangle_875" data-name="Rectangle 875" width="97.249" height="93.048" fill="#97b2e6"/>
    </clipPath>
  </defs>
  <g id="Group_998" data-name="Group 998" transform="translate(97.249 93.048) rotate(-180)">
    <g id="Group_997" data-name="Group 997" clip-path="url(#clip-path)">
      <path id="Path_46310" data-name="Path 46310" d="M36,27.784h13.05L24.519,0,0,27.775H13.048c.045.264.089.489.121.714a72.211,72.211,0,0,0,6.206,20.3A79.085,79.085,0,0,0,27.95,63.26a73.035,73.035,0,0,0,9.079,9.972,72.507,72.507,0,0,0,11.916,8.814,75.7,75.7,0,0,0,16.983,7.408,79.16,79.16,0,0,0,11.39,2.522q2.641.381,5.31.614c2.084.182,4.175.328,6.268.411,1.812.072,3.629.04,5.445.04.858,0,1.716-.032,2.574-.052a.863.863,0,0,0,.335-.07l-2.043-.3a106.44,106.44,0,0,1-12.212-2.547,77.807,77.807,0,0,1-10.8-3.741,64.708,64.708,0,0,1-15.3-9.266,55.9,55.9,0,0,1-18.711-28.69,63.665,63.665,0,0,1-1.565-6.91c-.263-1.638-.453-3.286-.634-4.933a43.54,43.54,0,0,1-.2-5.582c.018-.948.1-1.9.15-2.844A2.4,2.4,0,0,1,36,27.784" transform="translate(0 0)" fill="#97b2e6"/>
    </g>
  </g>
</svg>
