<svg id="Group_824" data-name="Group 824" xmlns="http://www.w3.org/2000/svg" xmlns:xlink="http://www.w3.org/1999/xlink" width="73.311" height="82.738" viewBox="0 0 73.311 82.738">
  <defs>
    <clipPath id="clip-path">
      <rect id="Rectangle_288" data-name="Rectangle 288" width="73.311" height="82.738" fill="none" stroke="#707070" stroke-width="2.5"/>
    </clipPath>
  </defs>
  <g id="Group_593" data-name="Group 593" transform="translate(0)" clip-path="url(#clip-path)">
    <path id="Path_1769" data-name="Path 1769" d="M132.416,19.622l-1.3-15.763h-4.863l-1.3,15.763Z" transform="translate(-92.031 -2.842)" fill="none" stroke="#e87722" stroke-miterlimit="10" stroke-width="2.5"/>
    <path id="Path_1770" data-name="Path 1770" d="M80.956,51.329A36.151,36.151,0,0,0,68.027,23.3a30.993,30.993,0,0,0-6.938-4.262l-.71-4.592a29.09,29.09,0,0,0-9.21-2.578l1.122,13.62H44.83l1.122-13.664a23.672,23.672,0,0,0-9.21,2.622l-.82,4.595A34.331,34.331,0,0,0,18.236,38.962a37.618,37.618,0,0,0-2.072,12.367H80.956" transform="translate(-11.905 -8.711)" fill="none" stroke="#e87722" stroke-miterlimit="10" stroke-width="2.5"/>
    <line id="Line_35" data-name="Line 35" x2="2.478" y2="16" transform="translate(48.473 5.738)" fill="none" stroke="#e87722" stroke-miterlimit="10" stroke-width="2.5"/>
    <line id="Line_36" data-name="Line 36" y1="16" x2="2.855" transform="translate(21.982 5.738)" fill="none" stroke="#e87722" stroke-miterlimit="10" stroke-width="2.5"/>
    <path id="Path_1771" data-name="Path 1771" d="M72.26,161.738H6.782s-2.951.11-2.922,4.651H75.136C75.165,161.848,72.26,161.738,72.26,161.738Z" transform="translate(-2.842 -119.121)" fill="none" stroke="#e87722" stroke-miterlimit="10" stroke-width="2.5"/>
    <path id="Path_1772" data-name="Path 1772" d="M71.416,179.39H56.562a14.474,14.474,0,0,1-28.936,0H12.772c0,.619.033,1.233.067,1.848l-5.815,1.52L9.657,192.82l5.688-1.487a29.483,29.483,0,0,0,4.849,7.482l-3.535,4.58,8.233,6.357,3.485-4.516a29.083,29.083,0,0,0,8.518,2.941v5.666h10.4v-5.666a29.021,29.021,0,0,0,8.136-2.743L58.848,210l8.324-6.232-3.466-4.628a29.421,29.421,0,0,0,3.845-5.269l5.49,2.023,3.591-9.759-5.6-2.064A29.739,29.739,0,0,0,71.416,179.39Z" transform="translate(-5.173 -132.122)" fill="none" stroke="#e87722" stroke-linecap="round" stroke-linejoin="round" stroke-width="2.5"/>
  </g>
</svg>
