<svg xmlns="http://www.w3.org/2000/svg" width="79.193" height="79.193" viewBox="0 0 79.193 79.193">
  <path id="minus" d="M1109.93,2605.9a1.765,1.765,0,0,0-1.77,1.76v10.64h-10.48a1.75,1.75,0,1,0-.01,3.5h10.49v10.56a1.765,1.765,0,1,0,3.53,0V2621.8h10.49a1.75,1.75,0,1,0,0-3.5h-10.49v-10.64A1.763,1.763,0,0,0,1109.93,2605.9Zm-19.81-5.65a28,28,0,1,0,39.61,0,28,28,0,0,0-39.61,0Zm37.13,37.13a24.5,24.5,0,1,1,0-34.66,24.5,24.5,0,0,1,0,34.66Z" transform="translate(1107.413 -2597.891) rotate(45)" fill="#e87722" fill-rule="evenodd"/>
</svg>
