<svg xmlns="http://www.w3.org/2000/svg" width="43.4" height="43.4" viewBox="0 0 43.4 43.4">
  <g id="ICBConstruction_Favicon-01" transform="translate(-2.8 -2.8)">
    <rect id="Rectangle_731" data-name="Rectangle 731" width="2.083" height="15.945" transform="translate(33.287 20.808)" fill="#1d2858"/>
    <rect id="Rectangle_732" data-name="Rectangle 732" width="2.083" height="15.945" transform="translate(13.526 20.808)" fill="#1d2858"/>
    <rect id="Rectangle_733" data-name="Rectangle 733" width="2.083" height="15.945" transform="translate(18.477 14.083)" fill="#1d2858"/>
    <rect id="Rectangle_734" data-name="Rectangle 734" width="2.083" height="15.945" transform="translate(28.357 14.083)" fill="#1d2858"/>
    <g id="Group_890" data-name="Group 890" transform="translate(2.8 2.8)">
      <rect id="Rectangle_735" data-name="Rectangle 735" width="2.083" height="15.945" transform="translate(20.607 3.589)" fill="#1d2858"/>
      <g id="Group_889" data-name="Group 889" transform="translate(0 0)">
        <path id="Path_31453" data-name="Path 31453" d="M46.2,24.5A21.7,21.7,0,1,0,13.547,43.23V40.858a19.694,19.694,0,1,1,21.824.062v2.372A21.7,21.7,0,0,0,46.2,24.5Z" transform="translate(-2.8 -2.8)" fill="#888b8d"/>
        <path id="Path_31454" data-name="Path 31454" d="M150.6,167.4v7.591a19.7,19.7,0,0,0,2.083-1.052V167.4Z" transform="translate(-120.113 -133.447)" fill="#e77724"/>
        <path id="Path_31455" data-name="Path 31455" d="M54.8,167.4v6.477a21.973,21.973,0,0,0,2.083,1.073V167.4Z" transform="translate(-44.074 -133.447)" fill="#e77724"/>
        <path id="Path_31456" data-name="Path 31456" d="M78.8,134.8v15.326c.681.206,1.382.351,2.083.5V134.8Z" transform="translate(-63.123 -107.572)" fill="#e77724"/>
        <path id="Path_31457" data-name="Path 31457" d="M126.7,134.8v15.842c.7-.124,1.4-.289,2.083-.474V134.8Z" transform="translate(-101.143 -107.572)" fill="#e77724"/>
        <path id="Path_31458" data-name="Path 31458" d="M102.7,97.4v23.866c.371.021.722.021,1.093.021.33,0,.66,0,.99-.021V97.4Z" transform="translate(-82.093 -77.886)" fill="#e77724"/>
      </g>
    </g>
  </g>
</svg>
