<svg id="Group_594" data-name="Group 594" xmlns="http://www.w3.org/2000/svg" xmlns:xlink="http://www.w3.org/1999/xlink" width="104.393" height="117.818" viewBox="0 0 104.393 117.818">
  <defs>
    <clipPath id="clip-path">
      <rect id="Rectangle_288" data-name="Rectangle 288" width="104.393" height="117.818" fill="none" stroke="#707070" stroke-width="3"/>
    </clipPath>
  </defs>
  <g id="Group_593" data-name="Group 593" transform="translate(0)" clip-path="url(#clip-path)">
    <path id="Path_1769" data-name="Path 1769" d="M135.579,26.306,133.731,3.859h-6.925l-1.848,22.447Z" transform="translate(-78.071 -2.411)" fill="none" stroke="#e87722" stroke-miterlimit="10" stroke-width="3"/>
    <path id="Path_1770" data-name="Path 1770" d="M108.427,68.076c0-14.878-6.236-29.992-18.412-39.907a44.134,44.134,0,0,0-9.88-6.069l-1.012-6.538A41.424,41.424,0,0,0,66.009,11.89l1.6,19.4H56.985l1.6-19.457a33.709,33.709,0,0,0-13.115,3.733L44.3,22.1C32.124,27.7,23.278,38.521,19.115,50.466a53.568,53.568,0,0,0-2.951,17.61h92.263" transform="translate(-10.099 -7.39)" fill="none" stroke="#e87722" stroke-miterlimit="10" stroke-width="3"/>
    <line id="Line_35" data-name="Line 35" x2="3.529" y2="22.784" transform="translate(69.025 8.171)" fill="none" stroke="#e87722" stroke-miterlimit="10" stroke-width="3"/>
    <line id="Line_36" data-name="Line 36" y1="22.784" x2="4.066" transform="translate(31.303 8.171)" fill="none" stroke="#e87722" stroke-miterlimit="10" stroke-width="3"/>
    <path id="Path_1771" data-name="Path 1771" d="M101.261,161.738H8.021s-4.2.157-4.161,6.623h101.5C105.4,161.895,101.261,161.738,101.261,161.738Z" transform="translate(-2.411 -101.052)" fill="none" stroke="#e87722" stroke-miterlimit="10" stroke-width="3"/>
    <path id="Path_1772" data-name="Path 1772" d="M98.717,179.39H77.566a20.611,20.611,0,0,1-41.2,0H15.21c0,.881.047,1.756.1,2.631l-8.281,2.165,3.749,14.329,8.1-2.118a41.983,41.983,0,0,0,6.9,10.654l-5.034,6.522,11.724,9.052,4.963-6.43a41.414,41.414,0,0,0,12.13,4.187v8.069H64.367v-8.069a41.325,41.325,0,0,0,11.586-3.906l4.868,6.5L92.674,214.1l-4.935-6.59a41.9,41.9,0,0,0,5.476-7.5l7.818,2.88,5.114-13.9-7.981-2.939A42.347,42.347,0,0,0,98.717,179.39Z" transform="translate(-4.388 -112.08)" fill="none" stroke="#e87722" stroke-linecap="round" stroke-linejoin="round" stroke-width="3"/>
  </g>
</svg>
