<svg id="Group_596" data-name="Group 596" xmlns="http://www.w3.org/2000/svg" xmlns:xlink="http://www.w3.org/1999/xlink" width="109.089" height="113.598" viewBox="0 0 109.089 113.598">
  <defs>
    <clipPath id="clip-path">
      <rect id="Rectangle_295" data-name="Rectangle 295" width="109.089" height="113.598" fill="none" stroke="#707070" stroke-width="3"/>
    </clipPath>
  </defs>
  <g id="Group_595" data-name="Group 595" clip-path="url(#clip-path)">
    <path id="Path_1773" data-name="Path 1773" d="M110.267,125.782a5.567,5.567,0,0,1-5.566,5.571H9.428a5.57,5.57,0,0,1-5.569-5.571V65.327a5.57,5.57,0,0,1,5.569-5.569H104.7a5.567,5.567,0,0,1,5.566,5.569Z" transform="translate(-2.518 -38.997)" fill="#fff" stroke="#707070" stroke-width="3"/>
    <path id="Path_1774" data-name="Path 1774" d="M110.267,125.782a5.567,5.567,0,0,1-5.566,5.571H9.428a5.57,5.57,0,0,1-5.569-5.571V65.327a5.57,5.57,0,0,1,5.569-5.569H104.7a5.567,5.567,0,0,1,5.566,5.569Z" transform="translate(-2.518 -38.997)" fill="none" stroke="#e87722" stroke-miterlimit="10" stroke-width="3"/>
    <rect id="Rectangle_289" data-name="Rectangle 289" width="106.405" height="58.64" transform="translate(1.343 27.238)" fill="#fff" stroke="#707070" stroke-width="3"/>
    <rect id="Rectangle_290" data-name="Rectangle 290" width="106.405" height="58.64" transform="translate(1.343 27.238)" fill="none" stroke="#e87722" stroke-linecap="round" stroke-linejoin="round" stroke-width="3"/>
    <rect id="Rectangle_291" data-name="Rectangle 291" width="20.107" height="15.077" transform="translate(44.493 92.355)" fill="#fff" stroke="#707070" stroke-width="3"/>
    <rect id="Rectangle_292" data-name="Rectangle 292" width="20.107" height="15.077" transform="translate(44.493 92.355)" fill="none" stroke="#e87722" stroke-miterlimit="10" stroke-width="3"/>
    <path id="Path_1775" data-name="Path 1775" d="M133.353,309.234H100.007a4.938,4.938,0,0,0-4.8,4.825h42.941a4.942,4.942,0,0,0-4.8-4.825" transform="translate(-62.133 -201.802)" fill="#fff" stroke="#707070" stroke-width="3"/>
    <path id="Path_1776" data-name="Path 1776" d="M133.353,309.234H100.007a4.938,4.938,0,0,0-4.8,4.825h42.941A4.942,4.942,0,0,0,133.353,309.234Z" transform="translate(-62.133 -201.802)" fill="none" stroke="#e87722" stroke-linecap="round" stroke-linejoin="round" stroke-width="3"/>
    <path id="Path_1777" data-name="Path 1777" d="M123.641,59.06a1.671,1.671,0,0,1-1.672,1.671H49.343a1.671,1.671,0,0,1-1.672-1.671V5.53a1.671,1.671,0,0,1,1.672-1.671h72.626a1.671,1.671,0,0,1,1.672,1.671Z" transform="translate(-31.109 -2.518)" fill="#fff" stroke="#707070" stroke-width="3"/>
    <path id="Path_1778" data-name="Path 1778" d="M123.641,59.06a1.671,1.671,0,0,1-1.672,1.671H49.343a1.671,1.671,0,0,1-1.672-1.671V5.53a1.671,1.671,0,0,1,1.672-1.671h72.626a1.671,1.671,0,0,1,1.672,1.671Z" transform="translate(-31.109 -2.518)" fill="none" stroke="#e87722" stroke-miterlimit="10" stroke-width="3"/>
    <rect id="Rectangle_293" data-name="Rectangle 293" width="38.939" height="35.033" transform="translate(23.691 17.611)" fill="#fff" stroke="#707070" stroke-width="3"/>
    <rect id="Rectangle_294" data-name="Rectangle 294" width="38.939" height="35.033" transform="translate(23.691 17.611)" fill="none" stroke="#e87722" stroke-miterlimit="10" stroke-width="3"/>
    <path id="Path_1779" data-name="Path 1779" d="M123.641,13.311V5.53a1.67,1.67,0,0,0-1.672-1.671H49.343A1.671,1.671,0,0,0,47.671,5.53v7.781Z" transform="translate(-31.109 -2.518)" fill="#fff" stroke="#707070" stroke-width="3"/>
    <path id="Path_1780" data-name="Path 1780" d="M123.641,13.311V5.53a1.67,1.67,0,0,0-1.672-1.671H49.343A1.671,1.671,0,0,0,47.671,5.53v7.781Z" transform="translate(-31.109 -2.518)" fill="none" stroke="#e87722" stroke-miterlimit="10" stroke-width="3"/>
    <path id="Path_1781" data-name="Path 1781" d="M110.035,75.808c0-.345-.02-.688-.049-1.025l2.281-.6-1.025-3.908-2.324.609a11.3,11.3,0,0,0-1.888-2.782l1.492-1.934-3.2-2.468-1.512,1.961a11.325,11.325,0,0,0-3.151-1.063V62.118H96.629V64.6a11.247,11.247,0,0,0-3,.987l-1.483-1.983-3.231,2.422,1.464,1.958A11.862,11.862,0,0,0,88.9,69.921l-2.264-.835-1.4,3.789,2.226.821a11.285,11.285,0,0,0-.2,2.112c0,.25.011.5.026.743l-2.261.591,1.025,3.906,2.211-.577a11.345,11.345,0,0,0,1.881,2.908L88.77,85.156l3.2,2.467,1.352-1.752a11.309,11.309,0,0,0,3.31,1.143v2.2h4.037v-2.2a11.307,11.307,0,0,0,3.159-1.067l1.327,1.774,3.231-2.42-1.345-1.8a11.244,11.244,0,0,0,1.493-2.042l2.135.784,1.393-3.789-2.175-.8A11.477,11.477,0,0,0,110.035,75.808ZM98.645,83.42a7.753,7.753,0,1,1,7.757-7.756A7.751,7.751,0,0,1,98.645,83.42Z" transform="translate(-55.487 -40.537)" fill="none" stroke="#e87722" stroke-miterlimit="10" stroke-width="3"/>
    <line id="Line_37" data-name="Line 37" x2="19.507" transform="translate(69.149 20.252)" fill="#5fccf5" stroke="#707070" stroke-width="3"/>
    <line id="Line_38" data-name="Line 38" x2="19.507" transform="translate(69.149 20.252)" fill="none" stroke="#e87722" stroke-miterlimit="10" stroke-width="3"/>
    <line id="Line_39" data-name="Line 39" x2="4.564" transform="translate(69.149 32.113)" fill="#5fccf5" stroke="#707070" stroke-width="3"/>
    <line id="Line_40" data-name="Line 40" x2="4.564" transform="translate(69.149 32.113)" fill="none" stroke="#e87722" stroke-miterlimit="10" stroke-width="3"/>
    <line id="Line_41" data-name="Line 41" x2="13.143" transform="translate(75.512 32.113)" fill="#5fccf5" stroke="#707070" stroke-width="3"/>
    <line id="Line_42" data-name="Line 42" x2="13.143" transform="translate(75.512 32.113)" fill="none" stroke="#e87722" stroke-miterlimit="10" stroke-width="3"/>
    <line id="Line_43" data-name="Line 43" x2="7.472" transform="translate(69.149 25.801)" fill="#5fccf5" stroke="#707070" stroke-width="3"/>
    <line id="Line_44" data-name="Line 44" x2="7.472" transform="translate(69.149 25.801)" fill="none" stroke="#e87722" stroke-miterlimit="10" stroke-width="3"/>
    <line id="Line_45" data-name="Line 45" x2="9.961" transform="translate(78.695 25.801)" fill="#5fccf5" stroke="#707070" stroke-width="3"/>
    <line id="Line_46" data-name="Line 46" x2="9.961" transform="translate(78.695 25.801)" fill="none" stroke="#e87722" stroke-miterlimit="10" stroke-width="3"/>
    <line id="Line_47" data-name="Line 47" x2="19.507" transform="translate(69.149 38.141)" fill="#5fccf5" stroke="#707070" stroke-width="3"/>
    <line id="Line_48" data-name="Line 48" x2="19.507" transform="translate(69.149 38.141)" fill="none" stroke="#e87722" stroke-miterlimit="10" stroke-width="3"/>
    <line id="Line_49" data-name="Line 49" x2="4.564" transform="translate(69.149 50.003)" fill="#5fccf5" stroke="#707070" stroke-width="3"/>
    <line id="Line_50" data-name="Line 50" x2="4.564" transform="translate(69.149 50.003)" fill="none" stroke="#e87722" stroke-miterlimit="10" stroke-width="3"/>
    <line id="Line_51" data-name="Line 51" x2="13.143" transform="translate(75.512 50.003)" fill="#5fccf5" stroke="#707070" stroke-width="3"/>
    <line id="Line_52" data-name="Line 52" x2="13.143" transform="translate(75.512 50.003)" fill="none" stroke="#e87722" stroke-miterlimit="10" stroke-width="3"/>
    <line id="Line_53" data-name="Line 53" x2="7.472" transform="translate(69.149 43.694)" fill="#5fccf5" stroke="#707070" stroke-width="3"/>
    <line id="Line_54" data-name="Line 54" x2="7.472" transform="translate(69.149 43.694)" fill="none" stroke="#e87722" stroke-miterlimit="10" stroke-width="3"/>
    <line id="Line_55" data-name="Line 55" x2="9.961" transform="translate(78.695 43.694)" fill="#5fccf5" stroke="#707070" stroke-width="3"/>
    <line id="Line_56" data-name="Line 56" x2="9.961" transform="translate(78.695 43.694)" fill="none" stroke="#e87722" stroke-miterlimit="10" stroke-width="3"/>
    <line id="Line_57" data-name="Line 57" x2="3.083" transform="translate(77.467 6.068)" fill="#fff" stroke="#707070" stroke-width="3"/>
    <line id="Line_58" data-name="Line 58" x2="3.083" transform="translate(77.467 6.068)" fill="none" stroke="#e87722" stroke-miterlimit="10" stroke-width="3"/>
    <line id="Line_59" data-name="Line 59" x2="3.085" transform="translate(81.486 6.068)" fill="#fff" stroke="#707070" stroke-width="3"/>
    <line id="Line_60" data-name="Line 60" x2="3.085" transform="translate(81.486 6.068)" fill="none" stroke="#e87722" stroke-miterlimit="10" stroke-width="3"/>
    <line id="Line_61" data-name="Line 61" x2="3.085" transform="translate(85.507 6.068)" fill="#fff" stroke="#707070" stroke-width="3"/>
    <line id="Line_62" data-name="Line 62" x2="3.085" transform="translate(85.507 6.068)" fill="none" stroke="#e87722" stroke-miterlimit="10" stroke-width="3"/>
  </g>
</svg>
