<svg id="Group_598" data-name="Group 598" xmlns="http://www.w3.org/2000/svg" xmlns:xlink="http://www.w3.org/1999/xlink" width="116.425" height="115.207" viewBox="0 0 116.425 115.207">
  <defs>
    <clipPath id="clip-path">
      <rect id="Rectangle_296" data-name="Rectangle 296" width="116.425" height="115.206" fill="none" stroke="#707070" stroke-width="3"/>
    </clipPath>
  </defs>
  <g id="Group_597" data-name="Group 597" clip-path="url(#clip-path)">
    <path id="Path_1782" data-name="Path 1782" d="M120.764,122.421a5.693,5.693,0,0,0-.1,1.022v22.212h12.8V123.443a5.312,5.312,0,0,0-.1-1.022,16.979,16.979,0,0,0,.46-31.339v15.576H120.3V91.082a16.98,16.98,0,0,0,.46,31.339Z" transform="translate(-68.783 -56.907)" fill="none" stroke="#e87722" stroke-miterlimit="10" stroke-width="3"/>
    <path id="Path_1783" data-name="Path 1783" d="M153.787,202.067v-19.02a2.088,2.088,0,0,0-4.092,0v19.02Z" transform="translate(-93.527 -113.32)" fill="none" stroke="#e87722" stroke-miterlimit="10" stroke-width="3"/>
    <path id="Path_1784" data-name="Path 1784" d="M108.348,60.611c0-1.433-.077-2.848-.2-4.247L117.6,53.89,113.36,37.7l-9.637,2.518A47.275,47.275,0,0,0,95.91,28.69l6.182-8.014L88.844,10.45l-6.263,8.116a46.775,46.775,0,0,0-13.058-4.393V3.859H52.788V14.173a46.8,46.8,0,0,0-12.449,4.083l-6.146-8.2-13.4,10.035L26.873,28.2a47.183,47.183,0,0,0-6.122,8.022l-9.4-3.463L5.567,48.462l9.221,3.4a47.171,47.171,0,0,0-.825,8.753c0,1.034.047,2.057.111,3.076L4.711,66.136l4.24,16.2,9.153-2.4A47.227,47.227,0,0,0,25.91,91.977l-5.692,7.374L33.466,109.58l5.606-7.261a46.9,46.9,0,0,0,13.716,4.724v9.127H69.523v-9.127a46.821,46.821,0,0,0,13.1-4.409l5.5,7.343,13.4-10.034L95.936,92.5a47.206,47.206,0,0,0,6.187-8.479l8.838,3.251,5.784-15.7-9.02-3.323A47.614,47.614,0,0,0,108.348,60.611ZM61.157,92.148A32.135,32.135,0,1,1,93.289,60.013,32.136,32.136,0,0,1,61.157,92.148Z" transform="translate(-2.943 -2.411)" fill="none" stroke="#e87722" stroke-miterlimit="10" stroke-width="3"/>
  </g>
</svg>
