<svg xmlns="http://www.w3.org/2000/svg" width="1700" height="225.627" viewBox="0 0 1700 225.627">
  <path id="Subtraction_3" data-name="Subtraction 3" d="M1069,4475H-631V4249.374c32.643,13.627,66.067,26.636,99.347,38.666,33.434,12.086,67.618,23.506,101.6,33.943,34.174,10.5,69.073,20.283,103.726,29.088,34.865,8.859,70.433,16.967,105.716,24.1,35.521,7.179,71.714,13.563,107.574,18.976,36.116,5.451,72.889,10.066,109.3,13.719,36.664,3.678,73.972,6.481,110.889,8.33,37.193,1.862,74.992,2.806,112.347,2.806,37.311,0,75.063-.942,112.208-2.8,36.864-1.843,74.126-4.639,110.751-8.308,36.365-3.643,73.093-8.247,109.163-13.684,35.828-5.4,71.977-11.769,107.443-18.928,35.234-7.112,70.76-15.2,105.591-24.038,34.614-8.784,69.472-18.546,103.608-29.017,33.95-10.414,68.1-21.807,101.491-33.862,33.231-12,66.622-24.975,99.245-38.574V4475Z" transform="translate(631 -4249.374)" fill="#f4f4f4"/>
</svg>
